<svg width="32" height="32" viewBox="0 0 32 32" fill="none" xmlns="http://www.w3.org/2000/svg">
<path d="M11 0C11.5523 0 12 0.447715 12 1V11.5537L20.2939 3.29199C20.6844 2.90161 21.3175 2.90161 21.708 3.29199L28.7783 10.3643C28.9662 10.5518 29.0723 10.8067 29.0723 11.0723C29.0722 11.3378 28.9663 11.5927 28.7783 11.7803L20.5225 20H31C31.5523 20 32 20.4477 32 21V31C32 31.5523 31.5523 32 31 32H6C4.40839 32.0019 2.88152 31.3694 1.75781 30.2422C0.652034 29.1401 0.0212881 27.649 0 26.0879V1C0 0.447715 0.447715 0 1 0H11ZM10.4863 30H30V22H18.5156L10.4863 30ZM6 23C4.34315 23 3 24.3431 3 26C3 27.6569 4.34315 29 6 29C7.65685 29 9 27.6569 9 26C9 24.3431 7.65685 23 6 23ZM12 14.376V25.668L26.6562 11.0684L20.998 5.41211L12 14.376Z" fill="white"/>
</svg>
